<?xml version="1.0" encoding="UTF-8"?>
<!-- Created by Svg.la -->
<svg version="1.1" xmlns="http://www.w3.org/2000/svg" width="800" height="800">
<path d="M0 0 C264 0 528 0 800 0 C800 264 800 528 800 800 C536 800 272 800 0 800 C0 536 0 272 0 0 Z " fill="#FDE173" transform="translate(0,0)"/>
<path d="M0 0 C5.163 2.317 8.824 6.919 12.604 11.007 C14.403 12.895 16.205 14.782 18.01 16.667 C18.797 17.51 19.584 18.353 20.395 19.222 C22.514 21.352 24.641 23.31 26.912 25.268 C31.229 29.001 35.249 32.98 39.26 37.038 C40.006 37.788 40.753 38.539 41.522 39.312 C44.681 42.486 47.833 45.667 50.986 48.847 C53.304 51.183 55.626 53.517 57.947 55.85 C58.646 56.558 59.346 57.265 60.066 57.994 C63.973 61.921 67.99 65.633 72.184 69.25 C75.237 71.945 78.09 74.826 80.947 77.725 C81.561 78.343 82.174 78.96 82.806 79.596 C85.391 82.197 87.97 84.804 90.549 87.41 C99.716 96.721 99.716 96.721 109.399 105.485 C112.378 108.036 115.181 110.759 117.979 113.507 C118.546 114.045 119.113 114.583 119.697 115.137 C120.241 115.673 120.785 116.209 121.346 116.76 C121.829 117.229 122.312 117.698 122.81 118.181 C129.817 127.734 126.104 145.201 126.104 153.944 C41.624 153.944 -42.856 153.944 -129.896 153.944 C-129.896 122.257 -129.896 122.257 -124.523 116.323 C-123.656 115.538 -122.789 114.753 -121.896 113.944 C-120.223 112.26 -118.55 110.575 -116.877 108.889 C-115.438 107.443 -113.999 105.998 -112.559 104.552 C-111.58 103.568 -110.602 102.583 -109.625 101.597 C-100.439 92.332 -100.439 92.332 -95.947 88.499 C-90.282 83.65 -85.132 78.247 -79.896 72.944 C-68.325 61.223 -68.325 61.223 -63.99 57.538 C-57.768 52.229 -52.143 46.256 -46.396 40.444 C-33.117 27.013 -33.117 27.013 -26.797 21.653 C-24.488 19.577 -22.374 17.36 -20.24 15.104 C-19.047 13.852 -19.047 13.852 -17.83 12.575 C-16.194 10.848 -14.572 9.108 -12.963 7.356 C-5.23 -0.671 -5.23 -0.671 0 0 Z " fill="#1C1F21" transform="translate(401.896484375,276.055908203125)"/>
<path d="M0 0 C10.299 6.286 18.782 16.587 27.188 25.125 C29.312 27.277 31.438 29.428 33.566 31.575 C34.88 32.9 36.19 34.228 37.497 35.559 C41.202 39.304 45.04 42.811 49.027 46.253 C52.249 49.106 55.26 52.157 58.281 55.219 C58.939 55.88 59.597 56.542 60.275 57.224 C63.051 60.016 65.821 62.814 68.591 65.612 C70.632 67.67 72.675 69.726 74.719 71.781 C75.33 72.401 75.942 73.021 76.572 73.66 C80.291 77.399 84.143 80.911 88.133 84.358 C90.699 86.615 93.088 88.993 95.488 91.426 C95.958 91.899 96.428 92.373 96.912 92.861 C98.381 94.342 99.847 95.827 101.312 97.312 C103.264 99.291 105.219 101.265 107.176 103.238 C108.031 104.105 108.886 104.972 109.767 105.865 C113.117 109.096 113.117 109.096 117.5 110.188 C120.129 110.093 120.129 110.093 123 109 C123.025 114.426 123.043 119.852 123.055 125.278 C123.06 127.122 123.067 128.966 123.075 130.809 C123.088 133.468 123.093 136.127 123.098 138.785 C123.103 139.602 123.108 140.419 123.113 141.261 C123.115 154.328 123.115 154.328 120 159 C119.01 159.66 118.02 160.32 117 161 C115.994 162.663 114.994 164.33 114 166 C112.704 167.37 111.38 168.715 110 170 C110 169.01 110 168.02 110 167 C109.34 167.99 108.68 168.98 108 170 C96.4 159.305 85.18 148.268 74.088 137.051 C67.803 130.666 67.803 130.666 61.16 124.66 C53.656 118.264 46.912 110.962 39.981 103.961 C30.698 94.539 30.698 94.539 20.879 85.687 C18.5 83.551 16.325 81.261 14.125 78.941 C13.285 78.062 12.444 77.182 11.578 76.275 C9.846 74.452 8.127 72.616 6.422 70.768 C5.581 69.897 4.741 69.026 3.875 68.129 C3.13 67.336 2.385 66.542 1.617 65.725 C-1.315 63.792 -3.505 63.334 -7.019 63.535 C-10.513 64.355 -12.634 66.672 -14.969 69.223 C-15.493 69.761 -16.018 70.299 -16.558 70.854 C-18.226 72.572 -19.863 74.316 -21.5 76.062 C-23.138 77.773 -24.781 79.478 -26.426 81.182 C-27.496 82.293 -28.564 83.405 -29.63 84.52 C-32.877 87.901 -36.234 91.024 -39.814 94.052 C-45.29 98.932 -50.345 104.287 -55.5 109.5 C-68.752 122.903 -68.752 122.903 -74.943 128.166 C-79.847 132.539 -84.386 137.326 -89 142 C-94.94 148.017 -100.844 153.993 -107.288 159.48 C-108.96 160.964 -110.471 162.51 -111.977 164.16 C-112.851 165.118 -113.725 166.076 -114.625 167.062 C-115.504 168.043 -116.383 169.024 -117.289 170.035 C-118.184 170.684 -119.078 171.332 -120 172 C-123.293 171.438 -123.293 171.438 -126 170 C-126.688 167.938 -126.688 167.938 -127 166 C-127.99 165.67 -128.98 165.34 -130 165 C-133.888 159.544 -133.386 153.89 -133.293 147.477 C-133.289 146.375 -133.284 145.274 -133.28 144.139 C-133.263 140.634 -133.226 137.13 -133.188 133.625 C-133.172 131.243 -133.159 128.862 -133.146 126.48 C-133.113 120.653 -133.063 114.827 -133 109 C-131.163 109.357 -131.163 109.357 -129.289 109.722 C-126.217 110.095 -125.311 110.173 -122.528 108.625 C-121.82 107.906 -121.112 107.187 -120.383 106.445 C-119.119 105.197 -119.119 105.197 -117.829 103.923 C-117.152 103.222 -117.152 103.222 -116.461 102.507 C-114.899 100.896 -113.308 99.317 -111.71 97.741 C-108.073 94.144 -104.472 90.512 -100.875 86.875 C-87.31 73.16 -87.31 73.16 -83.07 69.57 C-76.312 63.831 -70.233 57.296 -64 51 C-49.132 35.981 -49.132 35.981 -43.084 30.861 C-37.735 26.084 -32.79 20.849 -27.75 15.75 C-25.435 13.409 -23.117 11.07 -20.797 8.734 C-20.274 8.203 -19.751 7.672 -19.212 7.124 C-12.929 0.8 -9.047 -1.762 0 0 Z " fill="#FDFDFC" transform="translate(405,214)"/>
<path d="M0 0 C84.48 0 168.96 0 256 0 C256 15.84 256 31.68 256 48 C171.52 48 87.04 48 0 48 C0 32.16 0 16.32 0 0 Z " fill="#FEFEFE" transform="translate(272,430)"/>
<path d="M0 0 C84.48 0 168.96 0 256 0 C256 56.432 256 56.432 250.688 62.75 C245.95 66.716 241.931 68.379 235.754 68.398 C234.587 68.402 233.419 68.406 232.217 68.41 C231.011 68.399 229.805 68.387 228.562 68.375 C227.36 68.387 226.158 68.398 224.92 68.41 C213.163 68.371 213.163 68.371 208 65 C202 57 202 57 202 25 C153.16 25 104.32 25 54 25 C54 34.9 54 44.8 54 55 C50.608 61.784 50.608 61.784 47.5 64.312 C46.618 65.049 46.618 65.049 45.719 65.801 C40.609 69.366 33.695 68.225 27.75 68.25 C25.927 68.281 25.927 68.281 24.066 68.312 C10.927 68.37 10.927 68.37 5.293 63.535 C-9.213 44.211 0 34.095 0 0 Z " fill="#1D2022" transform="translate(272,478)"/>
<path d="M0 0 C0.915 0.01 1.83 0.019 2.773 0.03 C16.205 0.379 24.245 3.91 33.688 13.438 C34.882 14.433 36.088 15.416 37.312 16.375 C38.488 17.396 38.488 17.396 39.688 18.438 C39.688 19.097 39.688 19.757 39.688 20.438 C40.507 20.829 40.507 20.829 41.344 21.229 C44.51 22.862 46.73 25.253 49.188 27.777 C49.705 28.3 50.223 28.823 50.756 29.361 C52.405 31.028 54.046 32.701 55.688 34.375 C57.329 36.045 58.973 37.713 60.619 39.378 C61.641 40.412 62.661 41.45 63.678 42.49 C65.708 44.549 67.695 46.443 70.031 48.155 C70.851 48.79 70.851 48.79 71.688 49.438 C71.688 50.097 71.688 50.757 71.688 51.438 C72.255 51.72 72.823 52.002 73.408 52.293 C76.224 53.707 77.962 55.503 80.164 57.754 C80.999 58.6 81.835 59.446 82.695 60.318 C83.991 61.646 83.991 61.646 85.312 63 C87.032 64.753 88.753 66.505 90.477 68.254 C91.617 69.421 91.617 69.421 92.78 70.612 C94.563 72.498 94.563 72.498 96.688 73.438 C96.688 74.097 96.688 74.757 96.688 75.438 C97.229 75.696 97.77 75.955 98.328 76.222 C101.566 77.89 103.894 80.339 106.441 82.891 C106.984 83.428 107.526 83.966 108.084 84.52 C109.227 85.658 110.368 86.798 111.506 87.94 C113.239 89.676 114.985 91.399 116.732 93.121 C117.845 94.231 118.956 95.342 120.066 96.453 C120.585 96.963 121.104 97.472 121.639 97.997 C126.927 103.354 129.064 107.738 129.086 115.262 C129.09 116.537 129.094 117.813 129.098 119.127 C129.08 121.106 129.08 121.106 129.062 123.125 C129.073 124.469 129.085 125.814 129.098 127.158 C129.094 128.43 129.09 129.702 129.086 131.012 C129.083 132.173 129.079 133.334 129.076 134.53 C128.688 137.438 128.688 137.438 127.475 139.339 C124.971 140.878 123.584 140.913 120.688 140.438 C118.385 138.842 118.385 138.842 116.039 136.602 C115.169 135.778 114.299 134.955 113.403 134.106 C112.059 132.785 112.059 132.785 110.688 131.438 C109.378 130.151 109.378 130.151 108.042 128.839 C105.366 126.179 102.711 123.5 100.062 120.812 C98.281 119.005 96.497 117.201 94.711 115.398 C93.937 114.613 93.162 113.827 92.365 113.017 C90.231 110.961 88.069 109.014 85.829 107.079 C81.845 103.621 78.109 99.972 74.406 96.219 C73.748 95.557 73.091 94.896 72.413 94.214 C69.637 91.422 66.867 88.623 64.096 85.826 C62.056 83.767 60.012 81.712 57.969 79.656 C57.357 79.036 56.745 78.416 56.115 77.777 C52.419 74.06 48.588 70.576 44.622 67.149 C41.649 64.518 38.874 61.71 36.098 58.875 C34.889 57.654 33.68 56.432 32.471 55.211 C30.608 53.324 28.748 51.435 26.89 49.544 C15.421 36.365 15.421 36.365 0.375 29.312 C-4.814 29.665 -7.204 31.701 -10.902 35.242 C-11.417 35.731 -11.932 36.219 -12.463 36.723 C-14.094 38.28 -15.706 39.855 -17.312 41.438 C-17.826 41.942 -18.34 42.447 -18.869 42.966 C-22.463 46.511 -26.017 50.094 -29.562 53.688 C-40.87 65.144 -40.87 65.144 -45.109 68.734 C-51.902 74.534 -58.034 81.095 -64.312 87.438 C-79.09 102.365 -79.09 102.365 -85.13 107.478 C-91.048 112.792 -96.532 118.599 -102.125 124.25 C-104.733 126.884 -107.344 129.515 -109.957 132.145 C-110.551 132.747 -111.145 133.349 -111.756 133.969 C-118.027 140.277 -118.027 140.277 -121.812 140.75 C-124.312 140.438 -124.312 140.438 -125.939 139.313 C-129.057 135.054 -127.822 128.378 -127.812 123.312 C-127.841 122.018 -127.869 120.724 -127.898 119.391 C-127.917 110.509 -126.824 104.508 -120.86 97.805 C-119.358 96.311 -117.803 94.933 -116.188 93.562 C-115.033 92.542 -113.881 91.52 -112.73 90.496 C-111.871 89.736 -111.871 89.736 -110.994 88.96 C-107.531 85.823 -104.304 82.45 -101.043 79.105 C-98.984 77.094 -96.923 75.228 -94.738 73.363 C-88.967 68.363 -83.674 62.868 -78.312 57.438 C-76.232 55.33 -74.148 53.227 -72.062 51.125 C-71.15 50.201 -70.237 49.276 -69.297 48.324 C-67.08 46.131 -64.771 44.077 -62.41 42.04 C-58.412 38.574 -54.692 34.897 -50.996 31.113 C-49.642 29.741 -48.287 28.37 -46.932 26.998 C-44.833 24.868 -42.737 22.736 -40.646 20.599 C-38.603 18.514 -36.55 16.438 -34.496 14.363 C-33.879 13.728 -33.262 13.092 -32.627 12.438 C-23.458 3.216 -12.865 -0.154 0 0 Z " fill="#1D2022" transform="translate(399.3125,184.5625)"/>
<path d="M0 0 C4.127 1.088 6.903 4.668 9.797 7.637 C10.349 8.194 10.902 8.752 11.471 9.327 C13.236 11.109 14.993 12.898 16.75 14.688 C18.493 16.459 20.238 18.228 21.986 19.995 C23.071 21.092 24.153 22.191 25.232 23.294 C28.011 26.109 30.86 28.779 33.857 31.363 C38.307 35.215 42.466 39.322 46.621 43.488 C47.406 44.273 48.192 45.057 49.001 45.865 C50.645 47.509 52.288 49.153 53.929 50.799 C56.451 53.326 58.978 55.848 61.506 58.369 C63.107 59.971 64.708 61.573 66.309 63.176 C67.066 63.931 67.823 64.686 68.603 65.464 C69.298 66.162 69.993 66.86 70.709 67.579 C71.322 68.193 71.935 68.807 72.567 69.44 C76.597 73.827 75 75.553 75 83 C26.16 83 -22.68 83 -73 83 C-73 72 -73 72 -71.5 69.25 C-70.12 68.008 -68.734 66.772 -67.323 65.564 C-61.955 60.955 -56.944 56.059 -51.969 51.031 C-51.133 50.192 -50.298 49.353 -49.437 48.488 C-46.789 45.828 -44.144 43.164 -41.5 40.5 C-38.013 36.987 -34.523 33.477 -31.031 29.969 C-30.245 29.174 -29.458 28.379 -28.647 27.56 C-24.464 23.358 -20.19 19.349 -15.696 15.482 C-13.783 13.811 -12.019 12.05 -10.297 10.184 C-9.709 9.565 -9.121 8.947 -8.516 8.311 C-7.314 7.035 -6.121 5.751 -4.938 4.459 C-4.355 3.852 -3.772 3.246 -3.172 2.621 C-2.657 2.069 -2.143 1.516 -1.612 0.947 C-0.814 0.478 -0.814 0.478 0 0 Z " fill="#FCE174" transform="translate(399,322)"/>
<path d="M0 0 C1.48 0.114 2.959 0.241 4.438 0.375 C5.261 0.445 6.085 0.514 6.934 0.586 C7.956 0.791 7.956 0.791 9 1 C9.33 1.66 9.66 2.32 10 3 C12.899 4.76 15.673 5.445 19 6 C18.67 8.31 18.34 10.62 18 13 C19.279 12.876 20.558 12.752 21.875 12.625 C24.09 12.609 24.09 12.609 26 13 C27.438 15.875 27.438 15.875 28 19 C28.959 21.331 28.959 21.331 32 23 C32 23.66 32 24.32 32 25 C33.98 25.33 35.96 25.66 38 26 C38 27.32 38 28.64 38 30 C38.619 29.814 39.238 29.629 39.875 29.438 C42 29 42 29 44 30 C44 29.34 44 28.68 44 28 C44.99 28.33 45.98 28.66 47 29 C40.655 36.647 33.774 43.618 26.172 50.02 C24.427 51.611 22.854 53.21 21.266 54.949 C20.787 55.462 20.309 55.976 19.816 56.504 C18.432 58.001 17.071 59.517 15.711 61.035 C14.369 62.008 14.369 62.008 13 63 C9.707 62.438 9.707 62.438 7 61 C6.312 58.938 6.312 58.938 6 57 C5.01 56.67 4.02 56.34 3 56 C-0.888 50.544 -0.386 44.89 -0.293 38.477 C-0.289 37.375 -0.284 36.274 -0.28 35.139 C-0.263 31.634 -0.226 28.13 -0.188 24.625 C-0.172 22.243 -0.159 19.862 -0.146 17.48 C-0.113 11.653 -0.063 5.827 0 0 Z " fill="#FDF8E2" transform="translate(272,323)"/>
<path d="M0 0 C0.66 0 1.32 0 2 0 C2.025 5.426 2.043 10.852 2.055 16.278 C2.06 18.122 2.067 19.966 2.075 21.809 C2.088 24.468 2.093 27.127 2.098 29.785 C2.103 30.602 2.108 31.419 2.113 32.261 C2.115 45.328 2.115 45.328 -1 50 C-1.99 50.66 -2.98 51.32 -4 52 C-5.006 53.663 -6.006 55.33 -7 57 C-8.296 58.37 -9.62 59.715 -11 61 C-11 60.01 -11 59.02 -11 58 C-11.66 58.99 -12.32 59.98 -13 61 C-15.669 58.502 -18.335 56.001 -21 53.5 C-21.744 52.804 -22.488 52.108 -23.254 51.391 C-24.756 49.98 -26.252 48.565 -27.745 47.145 C-29.272 45.692 -30.811 44.252 -32.361 42.824 C-33.095 42.129 -33.829 41.435 -34.586 40.719 C-35.252 40.099 -35.917 39.48 -36.603 38.842 C-38 37 -38 37 -38.127 34.955 C-37.625 33 -37.625 33 -36 30 C-35.34 30 -34.68 30 -34 30 C-33.845 29.134 -33.845 29.134 -33.688 28.25 C-32.711 25.053 -30.594 24.038 -28 22 C-27.544 21.225 -27.087 20.451 -26.617 19.652 C-24.344 15.924 -21.31 13.267 -18.156 10.281 C-15.906 8.074 -15.906 8.074 -14.43 5.301 C-13 3 -13 3 -9.625 1.688 C-6.605 1.115 -4.048 0.91 -1 1 C-0.67 0.67 -0.34 0.34 0 0 Z " fill="#FEFBE9" transform="translate(526,323)"/>
<path d="M0 0 C84.48 0 168.96 0 256 0 C256 15.84 256 31.68 256 48 C255.34 48 254.68 48 254 48 C253.352 37.874 252.896 27.773 252.875 17.625 C252.868 16.298 252.868 16.298 252.861 14.945 C252.863 14.11 252.865 13.274 252.867 12.414 C252.868 11.681 252.869 10.949 252.871 10.194 C253 8 253 8 254 3 C171.17 3 88.34 3 3 3 C3.33 5.97 3.66 8.94 4 12 C3.682 14.587 3.682 14.587 3.102 16.711 C1.657 22.982 1.547 29.212 1.375 35.625 C1.336 36.82 1.298 38.015 1.258 39.246 C1.164 42.164 1.079 45.082 1 48 C0.67 48 0.34 48 0 48 C0 32.16 0 16.32 0 0 Z " fill="#F5F5F3" transform="translate(272,430)"/>
<path d="M0 0 C0.66 0 1.32 0 2 0 C2.025 5.426 2.043 10.852 2.055 16.278 C2.06 18.122 2.067 19.966 2.075 21.809 C2.088 24.468 2.093 27.127 2.098 29.785 C2.103 30.602 2.108 31.419 2.113 32.261 C2.115 45.328 2.115 45.328 -1 50 C-1.99 50.66 -2.98 51.32 -4 52 C-5.006 53.663 -6.006 55.33 -7 57 C-8.296 58.37 -9.62 59.715 -11 61 C-11 60.01 -11 59.02 -11 58 C-11.66 58.99 -12.32 59.98 -13 61 C-15.404 58.632 -17.767 56.227 -20.125 53.812 C-20.809 53.139 -21.494 52.465 -22.199 51.771 C-23.994 49.913 -25.609 48.178 -27 46 C-26.617 43.074 -26.617 43.074 -25 41 C-23.515 40.505 -23.515 40.505 -22 40 C-22 39.34 -22 38.68 -22 38 C-20.928 37.299 -19.855 36.597 -18.75 35.875 C-15.056 33.37 -13.662 30.876 -11.898 26.852 C-10.707 24.395 -8.98 22.852 -7 21 C-5.951 19.364 -4.951 17.695 -4 16 C-3.464 15.299 -2.928 14.598 -2.375 13.875 C-0.257 9.447 -0.246 4.853 0 0 Z " fill="#FEF6CE" transform="translate(526,323)"/>
<path d="M0 0 C0.99 0.33 1.98 0.66 3 1 C2.67 1.66 2.34 2.32 2 3 C1.928 5.718 1.907 8.409 1.938 11.125 C1.942 11.879 1.947 12.633 1.951 13.41 C1.963 15.273 1.981 17.137 2 19 C2.66 19 3.32 19 4 19 C4 19.66 4 20.32 4 21 C4.66 21 5.32 21 6 21 C6.911 23.04 7.539 25.123 8.219 27.25 C8.605 28.116 8.605 28.116 9 29 C9.66 29 10.32 29 11 29 C11 29.99 11 30.98 11 32 C11.619 32.144 12.238 32.289 12.875 32.438 C13.927 32.716 13.927 32.716 15 33 C15.704 34.314 16.363 35.652 17 37 C17.825 37.825 18.65 38.65 19.5 39.5 C22.618 42.618 23.789 44.404 24.363 48.754 C23.882 53.056 21.854 55.106 18.875 58 C18.401 58.514 17.926 59.029 17.438 59.559 C15.992 61 15.992 61 13 63 C9.676 62.441 9.676 62.441 7 61 C6.312 58.938 6.312 58.938 6 57 C5.01 56.67 4.02 56.34 3 56 C-0.888 50.544 -0.386 44.89 -0.293 38.477 C-0.289 37.375 -0.284 36.274 -0.28 35.139 C-0.263 31.634 -0.226 28.13 -0.188 24.625 C-0.172 22.243 -0.159 19.862 -0.146 17.48 C-0.113 11.653 -0.063 5.827 0 0 Z " fill="#FEF3C5" transform="translate(272,323)"/>
<path d="M0 0 C0.66 0 1.32 0 2 0 C1.743 6.496 1.166 10.763 -3 16 C-3.66 17.011 -4.32 18.021 -5 19.062 C-7 22 -7 22 -9.062 24.5 C-11.121 26.968 -11.121 26.968 -12.438 30.062 C-14.187 33.352 -15.919 34.946 -19 37 C-19.66 37 -20.32 37 -21 37 C-21 37.66 -21 38.32 -21 39 C-21.99 39.66 -22.98 40.32 -24 41 C-25.038 42.859 -25.038 42.859 -25 45 C-23.591 47.015 -23.591 47.015 -21.562 48.75 C-20.904 49.364 -20.245 49.977 -19.566 50.609 C-19.049 51.068 -18.533 51.527 -18 52 C-21 52 -21 52 -22.809 50.531 C-23.791 49.526 -23.791 49.526 -24.793 48.5 C-25.505 47.778 -26.217 47.056 -26.951 46.312 C-27.689 45.549 -28.427 44.786 -29.188 44 C-29.937 43.237 -30.687 42.474 -31.459 41.688 C-33.313 39.798 -35.159 37.902 -37 36 C-34.509 35.313 -32.621 35 -30 35 C-27.296 33.184 -27.296 33.184 -24.5 30.812 C-23.061 29.647 -23.061 29.647 -21.594 28.457 C-19.096 26.091 -17.635 23.996 -16 21 C-14 18.625 -14 18.625 -12 17 C-11.01 17.33 -10.02 17.66 -9 18 C-3.953 14.425 -2.518 7.638 -1 2 C-0.67 1.34 -0.34 0.68 0 0 Z " fill="#FBF6DB" transform="translate(525,324)"/>
<path d="M0 0 C0.33 0 0.66 0 1 0 C1.249 1.455 1.473 2.914 1.688 4.375 C1.815 5.187 1.943 5.999 2.074 6.836 C2.05 7.55 2.025 8.264 2 9 C-1.744 11.496 -3.642 11.237 -8.117 11.211 C-9.209 11.208 -9.209 11.208 -10.324 11.206 C-12.767 11.198 -15.21 11.175 -17.652 11.152 C-19.396 11.143 -21.139 11.135 -22.883 11.127 C-27.606 11.103 -32.329 11.066 -37.053 11.025 C-39.991 11 -42.929 10.978 -45.868 10.957 C-58.024 10.87 -70.179 10.757 -82.334 10.628 C-87.59 10.572 -92.846 10.522 -98.103 10.473 C-102.23 10.434 -106.358 10.391 -110.485 10.347 C-112.425 10.327 -114.364 10.308 -116.303 10.291 C-126.911 10.195 -137.427 9.938 -148 9 C-148 8.67 -148 8.34 -148 8 C-99.16 8 -50.32 8 0 8 C0 5.36 0 2.72 0 0 Z " fill="#26261A" transform="translate(474,397)"/>
<path d="M0 0 C0.33 0 0.66 0 1 0 C1.722 13.245 2.045 26.452 1.961 39.715 C1.955 40.828 1.949 41.942 1.943 43.089 C1.911 48.746 1.861 54.402 1.787 60.058 C1.772 62.181 1.757 64.303 1.742 66.426 C1.714 67.892 1.714 67.892 1.686 69.387 C1.663 75.521 2.27 80.06 6.625 84.75 C7.079 85.163 7.533 85.575 8 86 C8.33 86.66 8.66 87.32 9 88 C11.017 89.134 11.017 89.134 13 90 C8.361 95.67 8.361 95.67 5.812 98 C3.575 100.469 2.934 102.838 2 106 C1.67 106 1.34 106 1 106 C0.779 104.523 0.574 103.043 0.375 101.562 C0.259 100.739 0.143 99.915 0.023 99.066 C0.016 98.384 0.008 97.703 0 97 C0.99 96.505 0.99 96.505 2 96 C1.67 95.34 1.34 94.68 1 94 C1.174 93.429 1.348 92.858 1.527 92.27 C2.186 89.105 1.359 86.815 0.562 83.688 C-0.879 77.3 -1.209 71.205 -1.129 64.672 C-1.123 63.684 -1.117 62.695 -1.11 61.677 C-1.015 49.304 -0.758 36.933 -0.5 24.562 C-0.452 22.162 -0.403 19.762 -0.355 17.361 C-0.239 11.574 -0.121 5.787 0 0 Z " fill="#F9E17F" transform="translate(271,296)"/>
<path d="M0 0 C0.33 0 0.66 0 1 0 C1.251 20.123 1.251 20.123 -2 25 C-2.99 25.66 -3.98 26.32 -5 27 C-6.006 28.663 -7.006 30.33 -8 32 C-9.296 33.37 -10.62 34.715 -12 36 C-12 35.01 -12 34.02 -12 33 C-12.66 33.99 -13.32 34.98 -14 36 C-17.98 29.728 -17.98 29.728 -18.062 26.688 C-17 25 -17 25 -14.562 24.062 C-11.796 23.264 -11.796 23.264 -11 20.688 C-10.67 19.801 -10.34 18.914 -10 18 C-8.374 16.293 -6.709 14.623 -5 13 C-4.34 12.01 -3.68 11.02 -3 10 C-2.34 10 -1.68 10 -1 10 C-0.67 6.7 -0.34 3.4 0 0 Z " fill="#FEEDA7" transform="translate(527,348)"/>
<path d="M0 0 C0.33 0 0.66 0 1 0 C1 2.97 1 5.94 1 9 C1.66 9 2.32 9 3 9 C3 10.32 3 11.64 3 13 C4.315 13.702 5.651 14.365 7 15 C7.685 16.324 8.349 17.659 9 19 C9.804 19.784 10.609 20.567 11.438 21.375 C14.161 24.165 15.812 26.277 17 30 C15.562 32.5 15.562 32.5 13 34 C9.812 33.5 9.812 33.5 7 32 C6.312 29.938 6.312 29.938 6 28 C5.01 27.67 4.02 27.34 3 27 C-0.76 21.654 -0.353 16.382 -0.188 10.125 C-0.174 9.15 -0.16 8.176 -0.146 7.172 C-0.111 4.781 -0.062 2.391 0 0 Z " fill="#FDEAA2" transform="translate(272,352)"/>
<path d="M0 0 C0.66 0 1.32 0 2 0 C2.059 3.958 2.094 7.916 2.125 11.875 C2.142 12.984 2.159 14.092 2.176 15.234 C2.256 28.805 2.256 28.805 0 35 C-0.66 35 -1.32 35 -2 35 C-2.704 36.314 -3.363 37.652 -4 39 C-5.5 41.25 -5.5 41.25 -7 43 C-7.66 43 -8.32 43 -9 43 C-9.268 43.763 -9.536 44.526 -9.812 45.312 C-11 48 -11 48 -13.688 49.5 C-14.451 49.995 -15.214 50.49 -16 51 C-15.909 53.54 -15.909 53.54 -15 56 C-15 56.99 -15 57.98 -15 59 C-17.276 56.826 -19.333 54.68 -21 52 C-20.562 48.625 -20.562 48.625 -19 46 C-17.515 45.505 -17.515 45.505 -16 45 C-16 44.34 -16 43.68 -16 43 C-15.34 43 -14.68 43 -14 43 C-13.67 42.01 -13.34 41.02 -13 40 C-12.34 40 -11.68 40 -11 40 C-11 39.34 -11 38.68 -11 38 C-9.68 38 -8.36 38 -7 38 C-6.65 36.337 -6.318 34.67 -6 33 C-5.361 32.711 -4.721 32.423 -4.062 32.125 C-1.706 31.123 -1.706 31.123 -0.879 28.207 C0.543 22.753 0.211 17.155 0.125 11.562 C0.116 10.449 0.107 9.336 0.098 8.189 C0.074 5.459 0.041 2.73 0 0 Z " fill="#FEF2BB" transform="translate(526,323)"/>
<path d="M0 0 C0.99 0.33 1.98 0.66 3 1 C2.67 1.66 2.34 2.32 2 3 C0.699 16.092 0.72 29.597 8 41 C10.109 42.186 10.109 42.186 12 43 C12 43.99 12 44.98 12 46 C12.949 46.082 13.897 46.165 14.875 46.25 C18 47 18 47 19.5 48.625 C20.233 52.107 19.144 54.695 18 58 C14.256 56.752 13.832 55.12 12.035 51.773 C10.183 48.601 7.468 46.416 4.75 44 C3 42 3 42 3 38 C2.34 38 1.68 38 1 38 C-0.12 29.965 -0.114 22.041 -0.062 13.938 C-0.057 12.581 -0.053 11.225 -0.049 9.869 C-0.037 6.579 -0.021 3.29 0 0 Z " fill="#FDEEB3" transform="translate(272,323)"/>
<path d="M0 0 C0.66 0.33 1.32 0.66 2 1 C2 1.66 2 2.32 2 3 C1.237 3.454 0.474 3.908 -0.312 4.375 C-3.899 6.544 -5.453 8.633 -7 12.5 C-8.393 15.984 -10.365 18.365 -13 21 C-13.99 21 -14.98 21 -16 21 C-16 21.99 -16 22.98 -16 24 C-17.658 24.373 -19.326 24.707 -21 25 C-21 25.66 -21 26.32 -21 27 C-23.5 27.625 -23.5 27.625 -26 28 C-23.773 23.907 -21.021 20.714 -17.746 17.445 C-17.245 16.94 -16.743 16.434 -16.226 15.913 C-15.172 14.853 -14.116 13.796 -13.057 12.741 C-11.43 11.118 -9.817 9.481 -8.205 7.844 C-7.178 6.814 -6.15 5.786 -5.121 4.758 C-4.638 4.265 -4.154 3.773 -3.656 3.265 C-2.493 2.118 -1.253 1.049 0 0 Z " fill="#F6DE7F" transform="translate(357,363)"/>
<path d="M0 0 C1 3 1 3 0.312 5.125 C-1.321 7.459 -2.314 7.393 -5 8 C-5.33 8.99 -5.66 9.98 -6 11 C-10.165 13.083 -15.575 12.186 -20.156 12.185 C-22.162 12.187 -24.168 12.206 -26.174 12.225 C-28.089 12.228 -28.089 12.228 -30.043 12.23 C-31.791 12.237 -31.791 12.237 -33.575 12.243 C-38.391 11.901 -44.042 10.932 -48 8 C-49.25 4.875 -49.25 4.875 -50 2 C-49.469 2.422 -48.938 2.843 -48.391 3.277 C-47.684 3.825 -46.978 4.373 -46.25 4.938 C-45.554 5.483 -44.858 6.028 -44.141 6.59 C-38.465 10.329 -31.149 9.223 -24.625 9.25 C-23.406 9.271 -22.186 9.291 -20.93 9.312 C-19.749 9.318 -18.568 9.323 -17.352 9.328 C-15.74 9.342 -15.74 9.342 -14.096 9.356 C-9.825 8.865 -6.441 7.378 -3.32 4.395 C-2.926 3.872 -2.531 3.35 -2.125 2.812 C-1.073 1.42 -1.073 1.42 0 0 Z " fill="#EFDA7E" transform="translate(324,536)"/>
<path d="M0 0 C0.66 0.33 1.32 0.66 2 1 C1.592 1.398 1.183 1.796 0.762 2.206 C-1.101 4.028 -2.957 5.857 -4.812 7.688 C-5.455 8.313 -6.098 8.939 -6.76 9.584 C-10.106 12.896 -12.585 15.948 -15 20 C-17.188 22.46 -19.525 24.759 -21.875 27.062 C-22.487 27.674 -23.1 28.286 -23.73 28.916 C-30.601 35.72 -30.601 35.72 -34 38 C-34.99 37.67 -35.98 37.34 -37 37 C-35.992 35.995 -35.992 35.995 -34.964 34.97 C-32.164 32.17 -29.385 29.35 -26.606 26.529 C-23.763 23.646 -20.912 20.771 -18.061 17.896 C-16.554 16.374 -15.05 14.849 -13.548 13.322 C-11.379 11.116 -9.2 8.921 -7.02 6.727 C-6.346 6.037 -5.672 5.348 -4.977 4.637 C-4.353 4.013 -3.729 3.388 -3.085 2.745 C-2.536 2.189 -1.987 1.633 -1.422 1.061 C-0.953 0.711 -0.483 0.361 0 0 Z " fill="#EDEDED" transform="translate(318,287)"/>
<path d="M0 0 C0.33 0 0.66 0 1 0 C1 15.51 1 31.02 1 47 C0.34 47 -0.32 47 -1 47 C-1.645 36.92 -2.116 26.852 -2.188 16.75 C-2.2 15.882 -2.213 15.014 -2.227 14.12 C-2.234 9.033 -1.744 4.797 0 0 Z " fill="#FEFBE6" transform="translate(527,431)"/>
<path d="M0 0 C0.66 0 1.32 0 2 0 C3.127 1.706 4.25 3.417 5.293 5.176 C9.528 9.701 14.459 10.187 20.371 10.512 C22.726 10.584 25.082 10.643 27.438 10.688 C28.646 10.722 29.854 10.756 31.1 10.791 C34.066 10.873 37.033 10.942 40 11 C39.67 11.66 39.34 12.32 39 13 C36.874 13.259 36.874 13.259 34.074 13.266 C32.545 13.272 32.545 13.272 30.985 13.279 C29.897 13.269 28.809 13.26 27.688 13.25 C26.049 13.237 26.049 13.237 24.377 13.223 C7.166 12.975 7.166 12.975 3 11 C1.875 7.625 1.875 7.625 2 4 C1.044 1.664 1.044 1.664 0 0 Z " fill="#F3DE7D" transform="translate(473,535)"/>
<path d="M0 0 C6.035 4.986 11.508 10.428 17 16 C20.179 19.224 23.415 22.32 26.812 25.312 C27.603 26.01 28.393 26.707 29.207 27.426 C29.799 27.945 30.39 28.465 31 29 C30.01 29.66 29.02 30.32 28 31 C25.644 29.142 23.663 27.314 21.582 25.176 C20.965 24.559 20.348 23.941 19.712 23.305 C18.405 21.994 17.105 20.676 15.811 19.353 C13.824 17.325 11.818 15.318 9.807 13.314 C8.543 12.04 7.281 10.765 6.02 9.488 C5.115 8.583 5.115 8.583 4.192 7.66 C0 3.347 0 3.347 0 0 Z " fill="#2B2C2F" transform="translate(418,223)"/>
<path d="M0 0 C2.525 1.082 4.035 2.038 5.938 4.062 C9.667 7.566 14.474 7.153 19.395 7.316 C20.597 7.358 21.799 7.4 23.037 7.443 C24.906 7.502 24.906 7.502 26.812 7.562 C28.078 7.606 29.343 7.649 30.646 7.693 C33.764 7.799 36.882 7.901 40 8 C39.67 8.66 39.34 9.32 39 10 C34.648 10.482 30.25 10.324 25.875 10.312 C24.65 10.329 23.426 10.345 22.164 10.361 C8.813 10.369 8.813 10.369 3.223 5.43 C0 1.111 0 1.111 0 0 Z " fill="#302D1B" transform="translate(274,536)"/>
<path d="M0 0 C3.651 1.526 5.901 3.725 8.625 6.562 C11.511 9.69 11.511 9.69 15 12 C15 12.66 15 13.32 15 14 C15.66 14 16.32 14 17 14 C18.354 15.65 19.687 17.317 21 19 C21.66 19.33 22.32 19.66 23 20 C23 20.66 23 21.32 23 22 C23.66 22 24.32 22 25 22 C24.67 22.99 24.34 23.98 24 25 C18.412 20.34 13.208 15.391 8.062 10.25 C7.283 9.483 6.504 8.716 5.701 7.926 C4.966 7.192 4.23 6.459 3.473 5.703 C2.805 5.04 2.137 4.376 1.449 3.692 C0 2 0 2 0 0 Z " fill="#323336" transform="translate(464,269)"/>
<path d="M0 0 C3.863 1.585 6.289 4.06 9.203 7.008 C9.686 7.493 10.168 7.979 10.666 8.479 C12.199 10.023 13.724 11.574 15.25 13.125 C16.291 14.176 17.333 15.227 18.375 16.277 C20.922 18.846 23.463 21.421 26 24 C25.34 24.66 24.68 25.32 24 26 C20.576 22.625 17.158 19.244 13.746 15.856 C12.584 14.704 11.42 13.553 10.254 12.405 C8.581 10.756 6.915 9.102 5.25 7.445 C4.725 6.931 4.2 6.416 3.659 5.886 C2.401 4.628 1.195 3.318 0 2 C0 1.34 0 0.68 0 0 Z " fill="#E4D27B" transform="translate(429,351)"/>
<path d="M0 0 C0.33 0 0.66 0 1 0 C1.55 1.567 2.039 3.155 2.5 4.75 C2.758 5.632 3.016 6.513 3.281 7.422 C4 10 4 10 4.469 12.328 C4.644 12.88 4.819 13.432 5 14 C5.66 14 6.32 14 7 14 C7.684 15.325 8.35 16.659 9 18 C9.66 18.33 10.32 18.66 11 19 C11.625 21.562 11.625 21.562 12 24 C9.562 23.25 9.562 23.25 7 22 C6.375 19.938 6.375 19.938 6 18 C5.01 17.67 4.02 17.34 3 17 C-0.796 11.657 -0.301 6.266 0 0 Z " fill="#FEE790" transform="translate(272,362)"/>
<path d="M0 0 C-4.349 2.474 -7.464 3.377 -12.457 3.363 C-13.651 3.363 -14.846 3.362 -16.076 3.361 C-17.309 3.345 -18.542 3.329 -19.812 3.312 C-21.691 3.317 -21.691 3.317 -23.607 3.322 C-30.441 3.281 -30.441 3.281 -33 3 C-33.33 2.34 -33.66 1.68 -34 1 C-33.233 0.975 -32.467 0.95 -31.677 0.924 C-28.201 0.808 -24.726 0.685 -21.25 0.562 C-20.043 0.523 -18.837 0.484 -17.594 0.443 C-15.854 0.381 -15.854 0.381 -14.078 0.316 C-13.01 0.28 -11.942 0.243 -10.841 0.205 C-1.469 -0.472 -1.469 -0.472 0 0 Z " fill="#2E2C19" transform="translate(520,543)"/>
<path d="M0 0 C0.66 0.66 1.32 1.32 2 2 C2.66 1.34 3.32 0.68 4 0 C6.125 0.375 6.125 0.375 8 1 C3.361 6.67 3.361 6.67 0.812 9 C-1.425 11.469 -2.066 13.838 -3 17 C-3.33 17 -3.66 17 -4 17 C-4.221 15.523 -4.426 14.043 -4.625 12.562 C-4.741 11.739 -4.857 10.915 -4.977 10.066 C-4.984 9.384 -4.992 8.703 -5 8 C-4.34 7.67 -3.68 7.34 -3 7 C-3 6.01 -3 5.02 -3 4 C-2.01 3.67 -1.02 3.34 0 3 C0 2.01 0 1.02 0 0 Z " fill="#F0DA7F" transform="translate(276,385)"/>
<path d="M0 0 C0.875 1.75 0.875 1.75 1 4 C-0.965 5.384 -2.97 6.712 -5 8 C-6.006 9.663 -7.007 11.329 -8 13 C-10.188 13.625 -10.188 13.625 -12 14 C-12 14.99 -12 15.98 -12 17 C-13.98 17.33 -15.96 17.66 -18 18 C-5.333 2.667 -5.333 2.667 0 0 Z " fill="#E6D07C" transform="translate(379,342)"/>
<path d="M0 0 C2.125 0.062 2.125 0.062 5 1 C6.388 2.524 7.762 4.064 9.043 5.68 C11.653 8.774 14.5 11.591 17.375 14.438 C17.924 14.982 18.472 15.526 19.037 16.087 C20.356 17.394 21.678 18.697 23 20 C22.34 20.66 21.68 21.32 21 22 C18.006 19.031 15.015 16.058 12.028 13.083 C11.01 12.07 9.992 11.058 8.972 10.048 C7.51 8.598 6.052 7.145 4.594 5.691 C3.714 4.817 2.834 3.942 1.928 3.041 C0 1 0 1 0 0 Z " fill="#35321F" transform="translate(408,329)"/>
</svg>
